<?xml version="1.0" encoding="UTF-8" standalone="no"?>
<svg
   xmlns:dc="http://purl.org/dc/elements/1.1/"
   xmlns:cc="http://creativecommons.org/ns#"
   xmlns:rdf="http://www.w3.org/1999/02/22-rdf-syntax-ns#"
   xmlns:svg="http://www.w3.org/2000/svg"
   xmlns="http://www.w3.org/2000/svg"
   viewBox="0 0 246.72 246.72"
   height="246.72"
   width="246.72"
   xml:space="preserve"
   id="svg4634"
   version="1.1"><metadata
     id="metadata4640"><rdf:RDF><cc:Work
         rdf:about=""><dc:format>image/svg+xml</dc:format><dc:type
           rdf:resource="http://purl.org/dc/dcmitype/StillImage" /><dc:title></dc:title></cc:Work></rdf:RDF></metadata><defs
     id="defs4638"><clipPath
       id="clipPath4650"
       clipPathUnits="userSpaceOnUse"><path
         style="clip-rule:evenodd"
         id="path4648"
         d="M 0,1.2207e-4 H 960 V 540.00012 H 0 Z" /></clipPath><clipPath
       id="clipPath4668"
       clipPathUnits="userSpaceOnUse"><path
         style="clip-rule:evenodd"
         id="path4666"
         d="M 0,540 H 960 V 2.4414e-4 L 6.1035e-5,1.8311e-4" /></clipPath><clipPath
       id="clipPath4686"
       clipPathUnits="userSpaceOnUse"><path
         style="clip-rule:evenodd"
         id="path4684"
         d="M -9.1553e-5,540 H 960 V 0 H -9.1553e-5" /></clipPath><clipPath
       id="clipPath4696"
       clipPathUnits="userSpaceOnUse"><path
         style="clip-rule:evenodd"
         id="path4694"
         d="M -9.1553e-5,540 H 960 V 0 H -6.1035e-5" /></clipPath><clipPath
       id="clipPath4706"
       clipPathUnits="userSpaceOnUse"><path
         style="clip-rule:evenodd"
         id="path4704"
         d="M -9.1553e-5,540 H 960 V 6.1035e-5 H -1.5259e-4" /></clipPath><clipPath
       id="clipPath4722"
       clipPathUnits="userSpaceOnUse"><path
         style="clip-rule:evenodd"
         id="path4720"
         d="M 0,540 H 960 V 0 L 3.0518e-5,6.1035e-5" /></clipPath><clipPath
       id="clipPath4732"
       clipPathUnits="userSpaceOnUse"><path
         style="clip-rule:evenodd"
         id="path4730"
         d="M 0,540 H 960 V 0 L 3.0518e-5,6.1035e-5" /></clipPath><clipPath
       id="clipPath4742"
       clipPathUnits="userSpaceOnUse"><path
         style="clip-rule:evenodd"
         id="path4740"
         d="M -6.1035e-5,540 H 960 V 1.2207e-4 L -1.2207e-4,6.1035e-5" /></clipPath><clipPath
       id="clipPath4752"
       clipPathUnits="userSpaceOnUse"><path
         style="clip-rule:evenodd"
         id="path4750"
         d="M -6.1035e-5,540 H 960 V 1.2207e-4 L -1.2207e-4,6.1035e-5" /></clipPath></defs><g
     transform="matrix(1.3333333,0,0,-1.3333333,-525.43999,496.63999)"
     id="g4642"><path
       id="path4654"
       style="fill:#000000;fill-opacity:1;fill-rule:evenodd;stroke:none"
       d="m 394.56,279.96 c 0,50.83 41.21,92.04 92.04,92.04 50.83,0 92.04,-41.21 92.04,-92.04 0,-50.83 -41.21,-92.04 -92.04,-92.04 -50.83,0 -92.04,41.21 -92.04,92.04 z" /><path
       id="path4656"
       style="fill:none;stroke:#000000;stroke-width:0.95999998;stroke-linecap:butt;stroke-linejoin:miter;stroke-miterlimit:10;stroke-dasharray:none;stroke-opacity:1"
       d="m 394.56,279.96 c 0,50.83 41.21,92.04 92.04,92.04 50.83,0 92.04,-41.21 92.04,-92.04 0,-50.83 -41.21,-92.04 -92.04,-92.04 -50.83,0 -92.04,41.21 -92.04,92.04 z" /><path
       id="path4658"
       style="fill:#ffffff;fill-opacity:1;fill-rule:evenodd;stroke:none"
       d="m 451.43,363.66 6.38,-20.37 1.48,-0.23 1.37,2.08 c 2.91,3.01 6.95,4.87 11.4,4.87 l 5.16,-1.07 0.88,1.33 c 2.92,3.01 6.95,4.87 11.4,4.87 4.46,0 8.49,-1.86 11.41,-4.87 l 1.64,-2.51 4.02,0.84 c 2.23,0 4.35,-0.47 6.28,-1.31 l 4.9,-3.4 5.7,18.2 c 4.11,0 7.58,-6.26 8.08,-14.59 0.14,-2.22 0.05,-4.45 -0.24,-6.57 l -1.06,-4.21 2.84,-3.24 c 1.74,-2.65 2.76,-5.85 2.76,-9.29 l -0.32,-3.31 0.31,-0.23 c 2.42,-2.35 3.76,-4.92 3.76,-7.61 0,-1.4 -0.36,-2.77 -1.06,-4.1 l -2.93,-3.68 2.93,-3.68 c 0.7,-1.33 1.06,-2.7 1.06,-4.1 0,-1.41 -0.36,-2.78 -1.06,-4.1 l -2.93,-3.68 2.93,-3.69 c 0.7,-1.32 1.06,-2.69 1.06,-4.1 0,-2.81 -1.46,-5.48 -4.1,-7.92 l -3.99,-2.87 3.99,-2.87 c 2.64,-2.43 4.1,-5.11 4.1,-7.92 0,-1.4 -0.36,-2.77 -1.06,-4.1 l -2.93,-3.68 2.93,-3.68 c 0.7,-1.33 1.06,-2.7 1.06,-4.1 0,-1.41 -0.36,-2.78 -1.06,-4.1 l -2.93,-3.69 2.93,-3.68 c 0.7,-1.32 1.06,-2.69 1.06,-4.1 0,-2.81 -1.46,-5.48 -4.1,-7.92 l -1.15,-0.83 v -8.35 c 0,-1.79 -1.54,-3.24 -3.44,-3.24 h -43.45 -42.7 c -1.9,0 -3.44,1.45 -3.44,3.24 v 7.81 l -1.9,1.37 c -2.64,2.44 -4.1,5.11 -4.1,7.92 0,1.41 0.36,2.78 1.06,4.1 l 2.93,3.68 -2.93,3.69 c -0.7,1.32 -1.06,2.69 -1.06,4.1 0,1.4 0.36,2.77 1.06,4.1 l 2.93,3.68 -2.93,3.68 c -0.7,1.33 -1.06,2.7 -1.06,4.1 0,2.81 1.46,5.49 4.1,7.92 l 3.99,2.87 -3.99,2.87 c -2.64,2.44 -4.1,5.11 -4.1,7.92 0,1.41 0.36,2.78 1.06,4.1 l 2.93,3.69 -2.93,3.68 c -0.7,1.32 -1.06,2.69 -1.06,4.1 0,1.4 0.36,2.77 1.06,4.1 l 2.93,3.68 -2.93,3.68 c -0.7,1.33 -1.06,2.7 -1.06,4.1 0,1.41 0.36,2.78 1.06,4.1 l 0.29,0.36 -0.22,2.27 c 0,2.29 0.45,4.48 1.26,6.47 l 1.95,2.98 0.11,1.15 c 0.38,1.89 1.07,3.67 2.01,5.27 l 2.74,3.26 -0.91,3.6 c -0.29,2.12 -0.38,4.35 -0.25,6.58 0.51,8.33 3.98,14.58 8.09,14.58 z" /><path
       id="path4660"
       style="fill:none;stroke:#000000;stroke-width:2.27999997;stroke-linecap:butt;stroke-linejoin:miter;stroke-miterlimit:10;stroke-dasharray:none;stroke-opacity:1"
       d="m 451.43,363.66 6.38,-20.37 1.48,-0.23 1.37,2.08 c 2.91,3.01 6.95,4.87 11.4,4.87 l 5.16,-1.07 0.88,1.33 c 2.92,3.01 6.95,4.87 11.4,4.87 4.46,0 8.49,-1.86 11.41,-4.87 l 1.64,-2.51 4.02,0.84 c 2.23,0 4.35,-0.47 6.28,-1.31 l 4.9,-3.4 5.7,18.2 c 4.11,0 7.58,-6.26 8.08,-14.59 0.14,-2.22 0.05,-4.45 -0.24,-6.57 l -1.06,-4.21 2.84,-3.24 c 1.74,-2.65 2.76,-5.85 2.76,-9.29 l -0.32,-3.31 0.31,-0.23 c 2.42,-2.35 3.76,-4.92 3.76,-7.61 0,-1.4 -0.36,-2.77 -1.06,-4.1 l -2.93,-3.68 2.93,-3.68 c 0.7,-1.33 1.06,-2.7 1.06,-4.1 0,-1.41 -0.36,-2.78 -1.06,-4.1 l -2.93,-3.68 2.93,-3.69 c 0.7,-1.32 1.06,-2.69 1.06,-4.1 0,-2.81 -1.46,-5.48 -4.1,-7.92 l -3.99,-2.87 3.99,-2.87 c 2.64,-2.43 4.1,-5.11 4.1,-7.92 0,-1.4 -0.36,-2.77 -1.06,-4.1 l -2.93,-3.68 2.93,-3.68 c 0.7,-1.33 1.06,-2.7 1.06,-4.1 0,-1.41 -0.36,-2.78 -1.06,-4.1 l -2.93,-3.69 2.93,-3.68 c 0.7,-1.32 1.06,-2.69 1.06,-4.1 0,-2.81 -1.46,-5.48 -4.1,-7.92 l -1.15,-0.83 v -8.35 c 0,-1.79 -1.54,-3.24 -3.44,-3.24 h -43.45 -42.7 c -1.9,0 -3.44,1.45 -3.44,3.24 v 7.81 l -1.9,1.37 c -2.64,2.44 -4.1,5.11 -4.1,7.92 0,1.41 0.36,2.78 1.06,4.1 l 2.93,3.68 -2.93,3.69 c -0.7,1.32 -1.06,2.69 -1.06,4.1 0,1.4 0.36,2.77 1.06,4.1 l 2.93,3.68 -2.93,3.68 c -0.7,1.33 -1.06,2.7 -1.06,4.1 0,2.81 1.46,5.49 4.1,7.92 l 3.99,2.87 -3.99,2.87 c -2.64,2.44 -4.1,5.11 -4.1,7.92 0,1.41 0.36,2.78 1.06,4.1 l 2.93,3.69 -2.93,3.68 c -0.7,1.32 -1.06,2.69 -1.06,4.1 0,1.4 0.36,2.77 1.06,4.1 l 2.93,3.68 -2.93,3.68 c -0.7,1.33 -1.06,2.7 -1.06,4.1 0,1.41 0.36,2.78 1.06,4.1 l 0.29,0.36 -0.22,2.27 c 0,2.29 0.45,4.48 1.26,6.47 l 1.95,2.98 0.11,1.15 c 0.38,1.89 1.07,3.67 2.01,5.27 l 2.74,3.26 -0.91,3.6 c -0.29,2.12 -0.38,4.35 -0.25,6.58 0.51,8.33 3.98,14.58 8.09,14.58 z" /><g
       id="g4662"><g
         clip-path="url(#clipPath4668)"
         id="g4664"><path
           id="path4670"
           style="fill:none;stroke:#000000;stroke-width:4.55999994;stroke-linecap:butt;stroke-linejoin:miter;stroke-miterlimit:10;stroke-dasharray:none;stroke-opacity:1"
           d="m 487.32,333 c 19.88,0 36,-7.56 36,-16.89 0,-3.5 -2.27,-6.75 -6.15,-9.45 l -1.56,-0.89 2.12,-3.51 c 1.67,-3.57 2.59,-7.48 2.59,-11.6 0,-16.45 -14.77,-29.78 -33,-29.78 -18.23,0 -33,13.33 -33,29.78 0,4.12 0.92,8.03 2.59,11.6 l 2.12,3.51 -1.56,0.89 c -3.88,2.7 -6.15,5.95 -6.15,9.45 0,9.33 16.12,16.89 36,16.89 z" /></g></g><path
       id="path4672"
       style="fill:#000000;fill-opacity:1;fill-rule:evenodd;stroke:none"
       d="m 502.08,307.98 c 0,2.09 1.67,3.78 3.72,3.78 2.05,0 3.72,-1.69 3.72,-3.78 0,-2.09 -1.67,-3.78 -3.72,-3.78 -2.05,0 -3.72,1.69 -3.72,3.78 z" /><path
       id="path4674"
       style="fill:none;stroke:#000000;stroke-width:0.95999998;stroke-linecap:butt;stroke-linejoin:miter;stroke-miterlimit:10;stroke-dasharray:none;stroke-opacity:1"
       d="m 502.08,307.98 c 0,2.09 1.67,3.78 3.72,3.78 2.05,0 3.72,-1.69 3.72,-3.78 0,-2.09 -1.67,-3.78 -3.72,-3.78 -2.05,0 -3.72,1.69 -3.72,3.78 z" /><path
       id="path4676"
       style="fill:#000000;fill-opacity:1;fill-rule:evenodd;stroke:none"
       d="m 468,307.98 c 0,2.09 1.67,3.78 3.72,3.78 2.05,0 3.72,-1.69 3.72,-3.78 0,-2.09 -1.67,-3.78 -3.72,-3.78 -2.05,0 -3.72,1.69 -3.72,3.78 z" /><path
       id="path4678"
       style="fill:none;stroke:#000000;stroke-width:0.95999998;stroke-linecap:butt;stroke-linejoin:miter;stroke-miterlimit:10;stroke-dasharray:none;stroke-opacity:1"
       d="m 468,307.98 c 0,2.09 1.67,3.78 3.72,3.78 2.05,0 3.72,-1.69 3.72,-3.78 0,-2.09 -1.67,-3.78 -3.72,-3.78 -2.05,0 -3.72,1.69 -3.72,3.78 z" /><g
       id="g4680"><g
         clip-path="url(#clipPath4686)"
         id="g4682"><path
           id="path4688"
           style="fill:none;stroke:#000000;stroke-width:3;stroke-linecap:butt;stroke-linejoin:miter;stroke-miterlimit:10;stroke-dasharray:none;stroke-opacity:1"
           d="m 509.18,281.2 c 1.49,-4.35 -1.82,-8.31 -7.38,-8.84 -5.56,-0.53 -11.28,2.57 -12.76,6.92 -0.4,1.15 -0.46,2.32 -0.2,3.42" /></g></g><g
       id="g4690"><g
         clip-path="url(#clipPath4696)"
         id="g4692"><path
           id="path4698"
           style="fill:none;stroke:#000000;stroke-width:3;stroke-linecap:butt;stroke-linejoin:miter;stroke-miterlimit:10;stroke-dasharray:none;stroke-opacity:1"
           d="m 467.9,281.2 c -1.49,-4.35 1.82,-8.31 7.38,-8.84 5.56,-0.53 11.28,2.57 12.76,6.92 0.4,1.15 0.47,2.32 0.2,3.42" /></g></g><g
       id="g4700"><g
         clip-path="url(#clipPath4706)"
         id="g4702"><path
           id="path4708"
           style="fill:#000000;fill-opacity:1;fill-rule:evenodd;stroke:none"
           d="m 484.55,289.89 h 8.91 v -0.01 l 1.89,-4.16 -4.4,-4.39 h -3.71 v -0.01 l -4.43,4.43 z" /></g></g><path
       id="path4710"
       style="fill:#000000;fill-opacity:1;fill-rule:evenodd;stroke:none"
       d="m 482.04,287.52 c 0,1.33 1.07,2.4 2.4,2.4 1.33,0 2.4,-1.07 2.4,-2.4 0,-1.33 -1.07,-2.4 -2.4,-2.4 -1.33,0 -2.4,1.07 -2.4,2.4 z" /><path
       id="path4712"
       style="fill:#000000;fill-opacity:1;fill-rule:evenodd;stroke:none"
       d="m 491.4,287.52 c 0,1.33 1.05,2.4 2.34,2.4 1.29,0 2.34,-1.07 2.34,-2.4 0,-1.33 -1.05,-2.4 -2.34,-2.4 -1.29,0 -2.34,1.07 -2.34,2.4 z" /><path
       id="path4714"
       style="fill:#000000;fill-opacity:1;fill-rule:evenodd;stroke:none"
       d="m 486.72,282.84 c 0,1.33 1.07,2.4 2.4,2.4 1.33,0 2.4,-1.07 2.4,-2.4 0,-1.33 -1.07,-2.4 -2.4,-2.4 -1.33,0 -2.4,1.07 -2.4,2.4 z" /><g
       id="g4716"><g
         clip-path="url(#clipPath4722)"
         id="g4718"><path
           id="path4724"
           style="fill:#ffffff;fill-opacity:1;fill-rule:evenodd;stroke:none"
           d="m 446.75,201.33 c -4.69,8.12 -1.91,18.51 6.21,23.2 8.13,4.69 18.51,1.91 23.2,-6.22 1.5,-2.58 2.28,-5.52 2.28,-8.5 z" /></g></g><g
       id="g4726"><g
         clip-path="url(#clipPath4732)"
         id="g4728"><path
           id="path4734"
           style="fill:none;stroke:#000000;stroke-width:4.5;stroke-linecap:butt;stroke-linejoin:miter;stroke-miterlimit:10;stroke-dasharray:none;stroke-opacity:1"
           d="m 446.75,201.33 c -4.69,8.12 -1.91,18.51 6.21,23.2 8.13,4.69 18.51,1.91 23.2,-6.22 1.5,-2.58 2.28,-5.52 2.28,-8.5 z" /></g></g><g
       id="g4736"><g
         clip-path="url(#clipPath4742)"
         id="g4738"><path
           id="path4744"
           style="fill:#ffffff;fill-opacity:1;fill-rule:evenodd;stroke:none"
           d="m 529.75,201.55 c 4.69,8.13 1.9,18.51 -6.22,23.2 -8.12,4.69 -18.51,1.91 -23.2,-6.21 -1.49,-2.59 -2.28,-5.52 -2.28,-8.51 z" /></g></g><g
       id="g4746"><g
         clip-path="url(#clipPath4752)"
         id="g4748"><path
           id="path4754"
           style="fill:none;stroke:#000000;stroke-width:4.5;stroke-linecap:butt;stroke-linejoin:miter;stroke-miterlimit:10;stroke-dasharray:none;stroke-opacity:1"
           d="m 529.75,201.55 c 4.69,8.13 1.9,18.51 -6.22,23.2 -8.12,4.69 -18.51,1.91 -23.2,-6.21 -1.49,-2.59 -2.28,-5.52 -2.28,-8.51 z" /></g></g></g></svg>