<?xml version="1.0" encoding="UTF-8" standalone="no"?>
<svg
   xmlns:dc="http://purl.org/dc/elements/1.1/"
   xmlns:cc="http://creativecommons.org/ns#"
   xmlns:rdf="http://www.w3.org/1999/02/22-rdf-syntax-ns#"
   xmlns:svg="http://www.w3.org/2000/svg"
   xmlns="http://www.w3.org/2000/svg"
   viewBox="0 0 144.95999 224.7196"
   height="224.7196"
   width="144.95999"
   xml:space="preserve"
   id="svg815"
   version="1.1"><metadata
     id="metadata821"><rdf:RDF><cc:Work
         rdf:about=""><dc:format>image/svg+xml</dc:format><dc:type
           rdf:resource="http://purl.org/dc/dcmitype/StillImage" /><dc:title></dc:title></cc:Work></rdf:RDF></metadata><defs
     id="defs819"><clipPath
       id="clipPath831"
       clipPathUnits="userSpaceOnUse"><path
         style="clip-rule:evenodd"
         id="path829"
         d="M 0,1.2207e-4 H 960 V 540.00012 H 0 Z" /></clipPath><clipPath
       id="clipPath845"
       clipPathUnits="userSpaceOnUse"><path
         style="clip-rule:evenodd"
         id="path843"
         d="M 3.0518e-5,540 H 960 V 1.8311e-4 L 6.1035e-5,1.2207e-4" /></clipPath><clipPath
       id="clipPath863"
       clipPathUnits="userSpaceOnUse"><path
         style="clip-rule:evenodd"
         id="path861"
         d="M -1.2207e-4,540 H 960 V 0 H -9.1553e-5" /></clipPath><clipPath
       id="clipPath873"
       clipPathUnits="userSpaceOnUse"><path
         style="clip-rule:evenodd"
         id="path871"
         d="M -3.0518e-5,540 H 960 V 0 H -3.0518e-5" /></clipPath><clipPath
       id="clipPath883"
       clipPathUnits="userSpaceOnUse"><path
         style="clip-rule:evenodd"
         id="path881"
         d="M -1.2207e-4,540 H 960 V 6.1035e-5 H -1.2207e-4" /></clipPath><clipPath
       id="clipPath899"
       clipPathUnits="userSpaceOnUse"><path
         style="clip-rule:evenodd"
         id="path897"
         d="M -3.0518e-5,540 H 960 V 0 H 0" /></clipPath><clipPath
       id="clipPath909"
       clipPathUnits="userSpaceOnUse"><path
         style="clip-rule:evenodd"
         id="path907"
         d="M -3.0518e-5,540 H 960 V 0 H 0" /></clipPath><clipPath
       id="clipPath919"
       clipPathUnits="userSpaceOnUse"><path
         style="clip-rule:evenodd"
         id="path917"
         d="M -9.1553e-5,540 H 960 V 1.2207e-4 L -1.2207e-4,6.1035e-5" /></clipPath><clipPath
       id="clipPath929"
       clipPathUnits="userSpaceOnUse"><path
         style="clip-rule:evenodd"
         id="path927"
         d="M -9.1553e-5,540 H 960 V 1.2207e-4 L -1.2207e-4,6.1035e-5" /></clipPath><clipPath
       id="clipPath939"
       clipPathUnits="userSpaceOnUse"><path
         style="clip-rule:evenodd"
         id="path937"
         d="M 1.4305e-5,0 H 960.00001 V 540 H 1.4305e-5 Z" /></clipPath></defs><g
     transform="matrix(1.3333333,0,0,-1.3333333,-531.19999,550.79999)"
     id="g823"><path
       id="path835"
       style="fill:#ffffff;fill-opacity:1;fill-rule:evenodd;stroke:none"
       d="m 416.79,410.82 6.38,-20.35 1.48,-0.23 1.36,2.08 c 2.91,3 6.94,4.86 11.39,4.86 l 5.16,-1.07 0.87,1.33 c 2.91,3.01 6.94,4.87 11.39,4.87 4.45,0 8.48,-1.86 11.39,-4.87 l 1.64,-2.51 4.02,0.84 c 2.22,0 4.34,-0.47 6.27,-1.31 l 4.89,-3.4 5.7,18.19 c 4.11,0 7.57,-6.25 8.07,-14.57 0.14,-2.23 0.05,-4.46 -0.24,-6.57 l -1.06,-4.21 2.84,-3.23 c 1.74,-2.65 2.75,-5.85 2.75,-9.29 l -0.32,-3.31 0.31,-0.23 c 2.43,-2.35 3.76,-4.91 3.76,-7.6 0,-1.4 -0.36,-2.77 -1.06,-4.09 l -2.93,-3.68 2.93,-3.68 c 0.7,-1.33 1.06,-2.7 1.06,-4.1 0,-1.4 -0.36,-2.77 -1.06,-4.1 l -2.93,-3.68 2.93,-3.68 c 0.7,-1.32 1.06,-2.69 1.06,-4.09 0,-2.81 -1.46,-5.48 -4.09,-7.92 l -3.99,-2.87 3.99,-2.87 c 2.63,-2.43 4.09,-5.1 4.09,-7.91 0,-1.4 -0.36,-2.77 -1.06,-4.09 l -2.93,-3.68 2.93,-3.68 c 0.7,-1.33 1.06,-2.7 1.06,-4.1 0,-1.4 -0.36,-2.77 -1.06,-4.1 l -2.93,-3.68 2.93,-3.68 c 0.7,-1.32 1.06,-2.69 1.06,-4.09 0,-2.81 -1.46,-5.48 -4.09,-7.92 l -1.16,-0.82 v -8.35 c 0,-1.79 -1.53,-3.24 -3.43,-3.24 h -43.4 -42.65 c -1.9,0 -3.44,1.45 -3.44,3.24 v 7.81 l -1.9,1.36 c -2.63,2.44 -4.09,5.11 -4.09,7.92 0,1.4 0.36,2.77 1.06,4.09 l 2.93,3.68 -2.93,3.68 c -0.7,1.33 -1.06,2.7 -1.06,4.1 0,1.4 0.36,2.77 1.06,4.1 l 2.93,3.68 -2.93,3.68 c -0.7,1.32 -1.06,2.69 -1.06,4.09 0,2.81 1.46,5.48 4.09,7.91 l 3.99,2.87 -3.99,2.87 c -2.63,2.44 -4.09,5.11 -4.09,7.92 0,1.4 0.36,2.77 1.06,4.09 l 2.93,3.68 -2.93,3.68 c -0.7,1.33 -1.06,2.7 -1.06,4.1 0,1.4 0.36,2.77 1.06,4.1 l 2.93,3.68 -2.93,3.68 c -0.7,1.32 -1.06,2.69 -1.06,4.09 0,1.41 0.36,2.78 1.06,4.1 l 0.28,0.36 -0.22,2.26 c 0,2.29 0.45,4.48 1.27,6.47 l 1.95,2.97 0.11,1.15 c 0.37,1.9 1.06,3.67 2,5.27 l 2.74,3.26 -0.91,3.6 c -0.29,2.11 -0.38,4.34 -0.24,6.57 0.5,8.32 3.96,14.57 8.07,14.57 z" /><path
       id="path837"
       style="fill:none;stroke:#000000;stroke-width:4.55999994;stroke-linecap:butt;stroke-linejoin:miter;stroke-miterlimit:10;stroke-dasharray:none;stroke-opacity:1"
       d="m 416.79,410.82 6.38,-20.35 1.48,-0.23 1.36,2.08 c 2.91,3 6.94,4.86 11.39,4.86 l 5.16,-1.07 0.87,1.33 c 2.91,3.01 6.94,4.87 11.39,4.87 4.45,0 8.48,-1.86 11.39,-4.87 l 1.64,-2.51 4.02,0.84 c 2.22,0 4.34,-0.47 6.27,-1.31 l 4.89,-3.4 5.7,18.19 c 4.11,0 7.57,-6.25 8.07,-14.57 0.14,-2.23 0.05,-4.46 -0.24,-6.57 l -1.06,-4.21 2.84,-3.23 c 1.74,-2.65 2.75,-5.85 2.75,-9.29 l -0.32,-3.31 0.31,-0.23 c 2.43,-2.35 3.76,-4.91 3.76,-7.6 0,-1.4 -0.36,-2.77 -1.06,-4.09 l -2.93,-3.68 2.93,-3.68 c 0.7,-1.33 1.06,-2.7 1.06,-4.1 0,-1.4 -0.36,-2.77 -1.06,-4.1 l -2.93,-3.68 2.93,-3.68 c 0.7,-1.32 1.06,-2.69 1.06,-4.09 0,-2.81 -1.46,-5.48 -4.09,-7.92 l -3.99,-2.87 3.99,-2.87 c 2.63,-2.43 4.09,-5.1 4.09,-7.91 0,-1.4 -0.36,-2.77 -1.06,-4.09 l -2.93,-3.68 2.93,-3.68 c 0.7,-1.33 1.06,-2.7 1.06,-4.1 0,-1.4 -0.36,-2.77 -1.06,-4.1 l -2.93,-3.68 2.93,-3.68 c 0.7,-1.32 1.06,-2.69 1.06,-4.09 0,-2.81 -1.46,-5.48 -4.09,-7.92 l -1.16,-0.82 v -8.35 c 0,-1.79 -1.53,-3.24 -3.43,-3.24 h -43.4 -42.65 c -1.9,0 -3.44,1.45 -3.44,3.24 v 7.81 l -1.9,1.36 c -2.63,2.44 -4.09,5.11 -4.09,7.92 0,1.4 0.36,2.77 1.06,4.09 l 2.93,3.68 -2.93,3.68 c -0.7,1.33 -1.06,2.7 -1.06,4.1 0,1.4 0.36,2.77 1.06,4.1 l 2.93,3.68 -2.93,3.68 c -0.7,1.32 -1.06,2.69 -1.06,4.09 0,2.81 1.46,5.48 4.09,7.91 l 3.99,2.87 -3.99,2.87 c -2.63,2.44 -4.09,5.11 -4.09,7.92 0,1.4 0.36,2.77 1.06,4.09 l 2.93,3.68 -2.93,3.68 c -0.7,1.33 -1.06,2.7 -1.06,4.1 0,1.4 0.36,2.77 1.06,4.1 l 2.93,3.68 -2.93,3.68 c -0.7,1.32 -1.06,2.69 -1.06,4.09 0,1.41 0.36,2.78 1.06,4.1 l 0.28,0.36 -0.22,2.26 c 0,2.29 0.45,4.48 1.27,6.47 l 1.95,2.97 0.11,1.15 c 0.37,1.9 1.06,3.67 2,5.27 l 2.74,3.26 -0.91,3.6 c -0.29,2.11 -0.38,4.34 -0.24,6.57 0.5,8.32 3.96,14.57 8.07,14.57 z" /><g
       transform="translate(0,-1.5)"
       id="g839"><g
         clip-path="url(#clipPath845)"
         id="g841"><path
           id="path847"
           style="fill:none;stroke:#000000;stroke-width:4.55999994;stroke-linecap:butt;stroke-linejoin:miter;stroke-miterlimit:10;stroke-dasharray:none;stroke-opacity:1"
           d="m 452.76,381.6 c 19.88,0 36,-7.56 36,-16.89 0,-3.5 -2.27,-6.75 -6.15,-9.45 l -1.56,-0.89 2.12,-3.51 c 1.67,-3.57 2.59,-7.48 2.59,-11.6 0,-16.45 -14.77,-29.78 -33,-29.78 -18.23,0 -33,13.33 -33,29.78 0,4.12 0.92,8.03 2.59,11.6 l 2.12,3.51 -1.56,0.89 c -3.88,2.7 -6.15,5.95 -6.15,9.45 0,9.33 16.12,16.89 36,16.89 z" /></g></g><path
       id="path849"
       style="fill:#000000;fill-opacity:1;fill-rule:evenodd;stroke:none"
       d="m 467.4,355.14 c 0,2.05 1.69,3.72 3.78,3.72 2.09,0 3.78,-1.67 3.78,-3.72 0,-2.05 -1.69,-3.72 -3.78,-3.72 -2.09,0 -3.78,1.67 -3.78,3.72 z" /><path
       id="path851"
       style="fill:none;stroke:#000000;stroke-width:0.95999998;stroke-linecap:butt;stroke-linejoin:miter;stroke-miterlimit:10;stroke-dasharray:none;stroke-opacity:1"
       d="m 467.4,355.14 c 0,2.05 1.69,3.72 3.78,3.72 2.09,0 3.78,-1.67 3.78,-3.72 0,-2.05 -1.69,-3.72 -3.78,-3.72 -2.09,0 -3.78,1.67 -3.78,3.72 z" /><path
       id="path853"
       style="fill:#000000;fill-opacity:1;fill-rule:evenodd;stroke:none"
       d="m 433.32,355.14 c 0,2.05 1.69,3.72 3.78,3.72 2.09,0 3.78,-1.67 3.78,-3.72 0,-2.05 -1.69,-3.72 -3.78,-3.72 -2.09,0 -3.78,1.67 -3.78,3.72 z" /><path
       id="path855"
       style="fill:none;stroke:#000000;stroke-width:0.95999998;stroke-linecap:butt;stroke-linejoin:miter;stroke-miterlimit:10;stroke-dasharray:none;stroke-opacity:1"
       d="m 433.32,355.14 c 0,2.05 1.69,3.72 3.78,3.72 2.09,0 3.78,-1.67 3.78,-3.72 0,-2.05 -1.69,-3.72 -3.78,-3.72 -2.09,0 -3.78,1.67 -3.78,3.72 z" /><g
       transform="translate(0,-1.5)"
       id="g857"><g
         clip-path="url(#clipPath863)"
         id="g859"><path
           id="path865"
           style="fill:none;stroke:#000000;stroke-width:3;stroke-linecap:butt;stroke-linejoin:miter;stroke-miterlimit:10;stroke-dasharray:none;stroke-opacity:1"
           d="m 474.56,329.85 c 1.49,-4.35 -1.81,-8.31 -7.37,-8.84 -5.56,-0.53 -11.28,2.57 -12.77,6.92 -0.39,1.15 -0.46,2.31 -0.2,3.41" /></g></g><g
       transform="translate(0,-1.5)"
       id="g867"><g
         clip-path="url(#clipPath873)"
         id="g869"><path
           id="path875"
           style="fill:none;stroke:#000000;stroke-width:3;stroke-linecap:butt;stroke-linejoin:miter;stroke-miterlimit:10;stroke-dasharray:none;stroke-opacity:1"
           d="m 433.29,329.85 c -1.49,-4.35 1.81,-8.31 7.37,-8.84 5.57,-0.53 11.28,2.57 12.77,6.92 0.39,1.15 0.46,2.31 0.2,3.41" /></g></g><g
       transform="translate(0,-1.5)"
       id="g877"><g
         clip-path="url(#clipPath883)"
         id="g879"><path
           id="path885"
           style="fill:#000000;fill-opacity:1;fill-rule:evenodd;stroke:none"
           d="m 449.93,338.54 h 8.92 v -0.01 l 1.88,-4.16 -4.39,-4.39 h -3.71 l -0.01,-0.01 -4.43,4.43 z" /></g></g><path
       id="path887"
       style="fill:#000000;fill-opacity:1;fill-rule:evenodd;stroke:none"
       d="m 447.48,334.62 c 0,1.33 1.07,2.4 2.4,2.4 1.33,0 2.4,-1.07 2.4,-2.4 0,-1.33 -1.07,-2.4 -2.4,-2.4 -1.33,0 -2.4,1.07 -2.4,2.4 z" /><path
       id="path889"
       style="fill:#000000;fill-opacity:1;fill-rule:evenodd;stroke:none"
       d="m 456.72,334.62 c 0,1.33 1.07,2.4 2.4,2.4 1.33,0 2.4,-1.07 2.4,-2.4 0,-1.33 -1.07,-2.4 -2.4,-2.4 -1.33,0 -2.4,1.07 -2.4,2.4 z" /><path
       id="path891"
       style="fill:#000000;fill-opacity:1;fill-rule:evenodd;stroke:none"
       d="m 452.04,329.94 c 0,1.33 1.07,2.4 2.4,2.4 1.33,0 2.4,-1.07 2.4,-2.4 0,-1.33 -1.07,-2.4 -2.4,-2.4 -1.33,0 -2.4,1.07 -2.4,2.4 z" /><g
       transform="translate(0,-1.5)"
       id="g893"><g
         clip-path="url(#clipPath899)"
         id="g895"><path
           id="path901"
           style="fill:#ffffff;fill-opacity:1;fill-rule:evenodd;stroke:none"
           d="m 411.48,248.68 c -4.69,8.13 -1.9,18.51 6.22,23.2 8.12,4.69 18.51,1.91 23.2,-6.21 1.49,-2.59 2.28,-5.52 2.28,-8.51 z" /></g></g><g
       transform="translate(0,-1.5)"
       id="g903"><g
         clip-path="url(#clipPath909)"
         id="g905"><path
           id="path911"
           style="fill:none;stroke:#000000;stroke-width:4.5;stroke-linecap:butt;stroke-linejoin:miter;stroke-miterlimit:10;stroke-dasharray:none;stroke-opacity:1"
           d="m 411.48,248.68 c -4.69,8.13 -1.9,18.51 6.22,23.2 8.12,4.69 18.51,1.91 23.2,-6.21 1.49,-2.59 2.28,-5.52 2.28,-8.51 z" /></g></g><g
       transform="translate(0,-1.5)"
       id="g913"><g
         clip-path="url(#clipPath919)"
         id="g915"><path
           id="path921"
           style="fill:#ffffff;fill-opacity:1;fill-rule:evenodd;stroke:none"
           d="m 495.78,249.55 c 4.69,8.13 1.91,18.51 -6.22,23.2 -8.12,4.69 -18.51,1.91 -23.2,-6.21 -1.49,-2.59 -2.28,-5.52 -2.27,-8.51 z" /></g></g><g
       transform="translate(0,-1.5)"
       id="g923"><g
         clip-path="url(#clipPath929)"
         id="g925"><path
           id="path931"
           style="fill:none;stroke:#000000;stroke-width:4.5;stroke-linecap:butt;stroke-linejoin:miter;stroke-miterlimit:10;stroke-dasharray:none;stroke-opacity:1"
           d="m 495.78,249.55 c 4.69,8.13 1.91,18.51 -6.22,23.2 -8.12,4.69 -18.51,1.91 -23.2,-6.21 -1.49,-2.59 -2.28,-5.52 -2.27,-8.51 z" /></g></g></g></svg>
